<svg xmlns="http://www.w3.org/2000/svg" width="18" height="18" viewBox="0 0 18 18" fill="none">
    <path
        d="M13.3501 12.2215L16.3701 15.2407L15.3723 16.2384L12.3531 13.2185C11.2297 14.1191 9.83238 14.6089 8.39256 14.6068C4.88962 14.6068 2.04666 11.7639 2.04666 8.26094C2.04666 4.758 4.88962 1.91504 8.39256 1.91504C11.8955 1.91504 14.7385 4.758 14.7385 8.26094C14.7405 9.70075 14.2507 11.0981 13.3501 12.2215ZM11.9357 11.6983C12.8305 10.7781 13.3303 9.54452 13.3283 8.26094C13.3283 5.53432 11.1192 3.32524 8.39256 3.32524C5.66594 3.32524 3.45686 5.53432 3.45686 8.26094C3.45686 10.9876 5.66594 13.1966 8.39256 13.1966C9.67615 13.1987 10.9097 12.6989 11.8299 11.8041L11.9357 11.6983Z"
        fill="#888888" />
</svg>